<?xml version="1.0" encoding="utf-8"?>
<!-- Generator: Adobe Illustrator 25.4.1, SVG Export Plug-In . SVG Version: 6.00 Build 0)  -->
<svg version="1.0" id="Layer_1" xmlns="http://www.w3.org/2000/svg" xmlns:xlink="http://www.w3.org/1999/xlink" x="0px" y="0px"
	 viewBox="0 0 311.81 113.39" style="enable-background:new 0 0 311.81 113.39;" xml:space="preserve">
<style type="text/css">
	.st0{fill:#FFFFFF;}
	.st1{fill-rule:evenodd;clip-rule:evenodd;fill:#50B848;}
	.st2{fill:none;}
	.st3{fill-rule:evenodd;clip-rule:evenodd;fill:#FFFFFF;}
	.st4{fill:#53B949;}
	.st5{fill-rule:evenodd;clip-rule:evenodd;fill:#0095DA;}
</style>
<g>
	<rect x="14.17" y="16.6" class="st0" width="283.46" height="80.18"/>
	<rect x="94.12" y="19.42" class="st1" width="200.73" height="74.58"/>
	<g>
		<path class="st2" d="M210.84,35.75c-1.06,3.71-2.15,6.56-3.26,9.42h6.38c-1.03-2.86-2.03-5.71-3.06-9.42H210.84z"/>
		<path class="st2" d="M177.53,35.75c-1.06,3.71-2.15,6.56-3.26,9.42h6.38c-1.03-2.86-2.03-5.71-3.06-9.42H177.53z"/>
		<path class="st2" d="M209.46,63.13c-1.04,3.65-2.12,6.46-3.22,9.27h6.29c-1.01-2.81-2-5.62-3.01-9.27H209.46z"/>
		<path class="st2" d="M229.03,62.14h-3.74v16.23h3.13c5.71,0,8.46-2.84,8.46-8.78C236.88,65.07,234.36,62.14,229.03,62.14z"/>
		<path class="st2" d="M234.78,34.75h-3.79v16.48h3.18c5.8,0,8.59-2.88,8.59-8.92C242.76,37.72,240.2,34.75,234.78,34.75z"/>
		<path class="st2" d="M196.83,38.25c0-2.53-1.59-3.5-3.5-3.5h-2.44v7.94h1.62C196.16,42.7,196.83,39.99,196.83,38.25z"/>
		<path class="st2" d="M116.47,62.14h-3.74v16.23h3.13c5.71,0,8.46-2.84,8.46-8.78C124.32,65.07,121.8,62.14,116.47,62.14z"/>
		<path class="st2" d="M135.58,35.75c-1.06,3.71-2.15,6.56-3.26,9.42h6.38c-1.03-2.86-2.03-5.71-3.06-9.42H135.58z"/>
		<path class="st2" d="M257.14,34.4c-5.09,0-7.15,4.38-7.15,8.24c0,4.03,1.82,8.94,7.15,8.94c5.33,0,7.15-4.91,7.15-8.94
			C264.29,38.78,262.23,34.4,257.14,34.4z"/>
		<path class="st2" d="M254.53,61.8c-5.01,0-7.04,4.32-7.04,8.11c0,3.97,1.8,8.81,7.04,8.81c5.24,0,7.04-4.84,7.04-8.81
			C261.57,66.11,259.54,61.8,254.53,61.8z"/>
		<path class="st0" d="M116.41,60.12h-6.49V80.4h6.03c7.18,0,11.48-4.03,11.48-10.75C127.42,64.78,124.58,60.12,116.41,60.12z
			 M115.86,78.37h-3.13V62.14h3.74c5.33,0,7.85,2.93,7.85,7.45C124.32,75.53,121.57,78.37,115.86,78.37z"/>
		<polygon class="st0" points="135.91,70.72 142.95,70.72 142.95,68.69 135.91,68.69 135.91,62.14 143.1,62.14 143.1,60.12 
			133.1,60.12 133.1,80.4 144.34,80.4 144.34,78.37 135.91,78.37 		"/>
		<path class="st0" d="M154.57,60.12h-5.1V80.4h2.81V62.14h1.94c3.01,0,4.26,1.62,4.26,3.85c0,3.01-1.71,4.46-4.43,4.61l-0.93,0.03
			v1.85h0.9c4.55,0,7.48-3.1,7.48-6.52C161.5,62.03,158.86,60.12,154.57,60.12z"/>
		<path class="st0" d="M179.21,72.9c0,2.9-1.27,5.91-5.07,5.91c-3.62,0-5.19-2.2-5.19-6.4V60.12h-2.81v12.4c0,5.22,2.29,8.23,8,8.23
			c4.9,0,7.71-3.25,7.71-7.8V60.12h-2.64V72.9z"/>
		<polygon class="st0" points="201.12,60.12 185.29,60.12 185.29,62.14 191.78,62.14 191.78,80.4 194.6,80.4 194.6,62.14 
			201.12,62.14 		"/>
		<path class="st0" d="M208.82,60.12l-8.26,20.29h2.72l2.18-5.97h7.74l2.09,5.97h3.25l-7.56-20.29H208.82z M206.24,72.4
			c1.1-2.81,2.18-5.62,3.22-9.27h0.06c1.02,3.65,2,6.46,3.01,9.27H206.24z"/>
		<path class="st0" d="M228.97,60.12h-6.49V80.4h6.03c7.18,0,11.48-4.03,11.48-10.75C239.98,64.78,237.14,60.12,228.97,60.12z
			 M228.41,78.37h-3.13V62.14h3.74c5.33,0,7.85,2.93,7.85,7.45C236.88,75.53,234.12,78.37,228.41,78.37z"/>
		<path class="st0" d="M254.53,59.77c-5.85,0-10.14,4.46-10.14,10.14c0,6.06,3.88,10.84,10.14,10.84c6.26,0,10.14-4.78,10.14-10.84
			C264.67,64.23,260.38,59.77,254.53,59.77z M254.53,78.72c-5.25,0-7.04-4.84-7.04-8.81c0-3.8,2.03-8.11,7.04-8.11
			c5.01,0,7.04,4.32,7.04,8.11C261.57,73.88,259.77,78.72,254.53,78.72z"/>
		<path class="st0" d="M275.62,68.95c-2.61-1.88-3.85-2.96-3.85-4.4c0-1.57,1.13-2.75,3.16-2.75c1.22,0,2.52,0.72,3.51,1.45
			l1.33-1.45c-1.13-1.27-2.9-2.03-5.01-2.03c-3.16,0-5.8,2.06-5.8,4.78c0,2.87,1.88,4.11,3.56,5.42c1.65,1.22,4.69,2.87,4.69,5.42
			c0,2.26-1.54,3.33-3.53,3.33c-1.91,0-3.22-0.93-4.41-1.77l-1.24,1.68c1.45,1.42,3.77,2.12,5.71,2.12c3.24,0,6.29-2.09,6.29-5.3
			C280.03,72.84,278.41,70.98,275.62,68.95z"/>
		<path class="st0" d="M119.61,53.64c2.65,0,5.09-0.94,6.47-1.88l-1.12-1.71c-1.21,0.82-2.97,1.53-5.21,1.53
			c-4.5,0-8.09-3.5-8.09-8.71c0-4.82,3-8.47,8.09-8.47c2.2,0,4.41,1,5.38,1.79l1.18-1.76c-1.35-1.06-3.41-2.09-6.35-2.09
			c-7.38,0-11.44,5.41-11.44,10.59C108.52,48.61,112.25,53.64,119.61,53.64z"/>
		<polygon class="st0" points="135.64,28.31 138.55,31.16 140.29,31.16 136.61,26.69 134.7,26.69 131.02,31.16 132.73,31.16 		"/>
		<path class="st0" d="M134.93,32.69l-8.39,20.59h2.77l2.21-6.06h7.86l2.12,6.06h3.3l-7.68-20.59H134.93z M132.32,45.17
			c1.12-2.86,2.2-5.71,3.26-9.42h0.06c1.03,3.71,2.03,6.56,3.06,9.42H132.32z"/>
		<path class="st0" d="M168.38,53.29V32.69h-2.68c-2.88,5.47-5.8,10.97-8.71,16.77c-2.62-5.8-5.27-11.3-7.91-16.77h-3.06v20.59h2.35
			V36.52h0.06c0.79,2.71,5.06,11.5,7.62,16.77h1.15c2.76-5.27,7.44-14.36,8.27-16.77h0.06v16.77H168.38z"/>
		<path class="st0" d="M179.06,32.69h-2.18l-8.39,20.59h2.76l2.21-6.06h7.86l2.12,6.06h3.3L179.06,32.69z M174.27,45.17
			c1.12-2.86,2.21-5.71,3.26-9.42h0.06c1.03,3.71,2.03,6.56,3.06,9.42H174.27z"/>
		<path class="st0" d="M190.89,44.76h3.03l4.77,8.89l2.88-0.88l-5.12-8.77c1.97-1.27,3.44-2.97,3.44-6c0-3.56-2.62-5.29-5.97-5.29
			h-5.88v20.59h2.85V44.76z M190.89,34.75h2.44c1.91,0,3.5,0.97,3.5,3.5c0,1.74-0.68,4.44-4.33,4.44h-1.62V34.75z"/>
		<path class="st0" d="M210.19,32.69l-8.39,20.59h2.77l2.2-6.06h7.86l2.12,6.06h3.3l-7.68-20.59H210.19z M207.57,45.17
			c1.12-2.86,2.21-5.71,3.26-9.42h0.06c1.03,3.71,2.03,6.56,3.06,9.42H207.57z"/>
		<path class="st0" d="M234.72,32.69h-6.59v20.59h6.12c7.3,0,11.65-4.09,11.65-10.92C245.91,37.43,243.02,32.69,234.72,32.69z
			 M234.16,51.23h-3.18V34.75h3.79c5.41,0,7.97,2.97,7.97,7.56C242.76,48.35,239.96,51.23,234.16,51.23z"/>
		<path class="st0" d="M257.14,32.34c-5.94,0-10.3,4.53-10.3,10.3c0,6.15,3.94,11,10.3,11c6.35,0,10.3-4.86,10.3-11
			C267.44,36.87,263.09,32.34,257.14,32.34z M257.14,51.58c-5.32,0-7.15-4.91-7.15-8.94c0-3.85,2.06-8.24,7.15-8.24
			c5.09,0,7.15,4.38,7.15,8.24C264.29,46.67,262.47,51.58,257.14,51.58z"/>
		<path class="st0" d="M273.56,51.58c-1.94,0-3.27-0.94-4.47-1.8l-1.27,1.71c1.47,1.44,3.82,2.15,5.8,2.15
			c3.3,0,6.39-2.12,6.39-5.39c0-2.65-1.65-4.53-4.47-6.59c-2.65-1.91-3.91-3-3.91-4.47c0-1.59,1.15-2.8,3.21-2.8
			c1.23,0,2.56,0.73,3.56,1.47l1.35-1.47c-1.15-1.3-2.94-2.06-5.09-2.06c-3.21,0-5.89,2.09-5.89,4.86c0,2.91,1.91,4.18,3.62,5.5
			c1.68,1.24,4.77,2.91,4.77,5.5C277.15,50.49,275.59,51.58,273.56,51.58z"/>
	</g>
	<polygon class="st3" points="200.89,52.67 200.89,52.11 201.17,52.6 	"/>
	<polygon class="st3" points="200.89,79.79 200.75,80.21 200.89,80.21 	"/>
	<rect x="16.97" y="80.73" class="st4" width="74.3" height="13.27"/>
	<g>
		<rect x="16.96" y="51.32" class="st5" width="4.31" height="24.32"/>
		<path class="st5" d="M21.27,46.82V25.84h8.37v49.8h33.16c-9.2-1.81-19.59-8.81-24.57-13.79h53.08V19.42H16.96v27.39H21.27z"/>
		<rect x="16.96" y="48.32" class="st5" width="4.31" height="1.52"/>
	</g>
</g>
</svg>
